HIERARCHY
ROOT Hips
{
	OFFSET 0.000000 0.000000 0.000000
	CHANNELS 6 Xposition Yposition Zposition Zrotation Yrotation Xrotation 
	JOINT LHipJoint
	{
		OFFSET 0.000000 0.000000 0.000000
		CHANNELS 3 Zrotation Yrotation Xrotation
		JOINT LeftUpLeg
		{
			OFFSET 1.363060 -1.794630 0.839290
			CHANNELS 3 Zrotation Yrotation Xrotation
			JOINT LeftLeg
			{
				OFFSET 2.448110 -6.726130 0.000000
				CHANNELS 3 Zrotation Yrotation Xrotation
				JOINT LeftFoot
				{
					OFFSET 2.562200 -7.039590 0.000000
					CHANNELS 3 Zrotation Yrotation Xrotation
					JOINT LeftToeBase
					{
						OFFSET 0.157640 -0.433110 2.322550
						CHANNELS 3 Zrotation Yrotation Xrotation
						End Site
						{
							OFFSET 0.000000 0.000000 0.000000
						}
					}
				}
			}
		}
	}
	JOINT RHipJoint
	{
		OFFSET 0.000000 0.000000 0.000000
		CHANNELS 3 Zrotation Yrotation Xrotation
		JOINT RightUpLeg
		{
			OFFSET -1.305520 -1.794630 0.839290
			CHANNELS 3 Zrotation Yrotation Xrotation
			JOINT RightLeg
			{
				OFFSET -2.542530 -6.985550 0.000000
				CHANNELS 3 Zrotation Yrotation Xrotation
				JOINT RightFoot
				{
					OFFSET -2.568260 -7.056230 0.000000
					CHANNELS 3 Zrotation Yrotation Xrotation
					JOINT RightToeBase
					{
						OFFSET -0.164730 -0.452590 2.363150
						CHANNELS 3 Zrotation Yrotation Xrotation
						End Site
						{
							OFFSET 0.000000 0.000000 0.000000
						}
					}
				}
			}
		}
	}
	JOINT LowerBack
	{
		OFFSET 0.000000 0.000000 0.000000
		CHANNELS 3 Zrotation Yrotation Xrotation
		JOINT Spine
		{
			OFFSET 0.028270 2.035590 -0.193380
			CHANNELS 3 Zrotation Yrotation Xrotation
			JOINT Spine1
			{
				OFFSET 0.056720 2.048850 -0.042750
				CHANNELS 3 Zrotation Yrotation Xrotation
				JOINT Neck
				{
					OFFSET 0.000000 0.000000 0.000000
					CHANNELS 3 Zrotation Yrotation Xrotation
					JOINT Neck1
					{
						OFFSET -0.054170 1.746240 0.172020
						CHANNELS 3 Zrotation Yrotation Xrotation
						JOINT Head
						{
							OFFSET 0.104070 1.761360 -0.123970
							CHANNELS 3 Zrotation Yrotation Xrotation
							End Site
							{
								OFFSET 0.000000 0.000000 0.000000
							}
						}
					}
				}
				JOINT LeftShoulder
				{
					OFFSET 0.000000 0.000000 0.000000
					CHANNELS 3 Zrotation Yrotation Xrotation
					JOINT LeftArm
					{
						OFFSET 3.362410 1.200890 -0.311210
						CHANNELS 3 Zrotation Yrotation Xrotation
						JOINT LeftForeArm
						{
							OFFSET 4.983000 -0.000000 -0.000000
							CHANNELS 3 Zrotation Yrotation Xrotation
							JOINT LeftHand
							{
								OFFSET 3.483560 -0.000000 -0.000000
								CHANNELS 3 Zrotation Yrotation Xrotation
								JOINT LeftFingerBase
								{
									OFFSET 0.000000 0.000000 0.000000
									CHANNELS 3 Zrotation Yrotation Xrotation
									JOINT LeftHandIndex1
									{
										OFFSET 0.715260 -0.000000 -0.000000
										CHANNELS 3 Zrotation Yrotation Xrotation
										End Site
										{
											OFFSET 0.000000 0.000000 0.000000
										}
									}
								}
								JOINT LThumb
								{
									OFFSET 0.000000 0.000000 0.000000
									CHANNELS 3 Zrotation Yrotation Xrotation
									End Site
									{
										OFFSET 0.000000 0.000000 0.000000
									}
								}
							}
						}
					}
				}
				JOINT RightShoulder
				{
					OFFSET 0.000000 0.000000 0.000000
					CHANNELS 3 Zrotation Yrotation Xrotation
					JOINT RightArm
					{
						OFFSET -3.136600 1.374050 -0.404650
						CHANNELS 3 Zrotation Yrotation Xrotation
						JOINT RightForeArm
						{
							OFFSET -5.241900 -0.000000 -0.000000
							CHANNELS 3 Zrotation Yrotation Xrotation
							JOINT RightHand
							{
								OFFSET -3.444170 -0.000000 -0.000000
								CHANNELS 3 Zrotation Yrotation Xrotation
								JOINT RightFingerBase
								{
									OFFSET 0.000000 0.000000 0.000000
									CHANNELS 3 Zrotation Yrotation Xrotation
									JOINT RightHandIndex1
									{
										OFFSET -0.622530 -0.000000 -0.000000
										CHANNELS 3 Zrotation Yrotation Xrotation
										End Site
										{
											OFFSET 0.000000 0.000000 0.000000
										}
									}
								}
								JOINT RThumb
								{
									OFFSET 0.000000 0.000000 0.000000
									CHANNELS 3 Zrotation Yrotation Xrotation
									End Site
									{
										OFFSET 0.000000 0.000000 0.000000
									}
								}
							}
						}
					}
				}
			}
		}
	}
}
MOTION
Frames: 11
Frame Time: 0.008333
0.527321 17.236282 -0.922999 -177.889320 82.844851 -174.582814 -11.581504 5.707264 0.532310 -0.738085 9.658813 6.791265 -0.239167 2.367981 28.289664 1.353999 3.184449 21.605076 0.859200 -0.000001 -63.844800 9.657275 -0.597338 1.758507 4.041936 -4.406773 -16.917358 2.337087 0.674879 2.899717 -0.195083 -3.015238 7.417944 -1.487000 0.000000 -58.789200 5.742207 -6.538090 -4.189297 1.105658 -7.102748 -3.041370 -5.028643 -7.084745 3.062274 9.676890 -22.753068 -11.459924 -2.112203 -0.111613 -0.921937 0.000000 0.000000 0.000000 4.902843 10.889259 0.726407 -39.578249 3.467638 -2.416253 -1.205057 -65.410359 -0.019838 5.768785 -1.962830 -0.113582 -0.129735 0.269832 0.000000 0.000000 0.000000 0.000000 0.000000 0.000000 0.000000 14.501610 -21.842556 0.191177 71.328122 -14.508870 -14.497840 4.269609 21.205738 0.013422 2.382609 5.240369 0.105000 0.117142 -0.041717 -0.000000 0.000000 0.000000 0.000000 0.000000 0.000000 0.000000 
0.712675 17.243585 -0.920539 -176.162152 82.940858 -172.982712 -11.765751 5.688593 0.414466 -0.056188 10.740159 5.645842 -0.129213 2.428687 30.552509 1.530559 4.352472 22.253462 1.362300 0.000000 -59.384500 9.570300 -0.702781 1.699450 4.447185 -4.624702 -16.499112 2.356130 0.619816 3.573471 -0.171600 -2.866812 7.342590 -1.435700 0.000000 -58.177800 6.006276 -6.398274 -4.065508 1.131388 -6.979640 -3.040733 -5.092268 -6.961313 2.992353 9.819810 -22.539295 -11.467076 -2.152966 -0.115513 -0.924847 0.000000 0.000000 0.000000 4.895649 10.896500 0.699742 -40.425085 4.269785 -1.871925 -1.220761 -65.492579 -0.018534 5.700376 -1.992315 -0.113369 -0.130567 0.261148 -0.000000 0.000000 0.000000 0.000000 0.000000 0.000000 0.000000 14.708293 -21.501952 0.213816 70.884561 -13.556130 -14.156397 4.234295 21.259923 0.013142 2.074219 5.147573 0.089209 0.117829 -0.043245 -0.000000 0.000000 0.000000 0.000000 0.000000 0.000000 0.000000 
0.894462 17.250030 -0.917913 -174.682949 83.039776 -171.595399 -11.928955 5.639702 0.275284 0.502944 11.806678 4.428595 -0.036041 2.488873 32.834260 1.716134 5.915590 22.490754 2.058500 -0.000000 -54.554700 9.480164 -0.797936 1.681527 4.790977 -4.636731 -16.043742 2.361393 0.582528 4.172800 -0.177303 -2.873074 7.065267 -1.417800 -0.000000 -56.991400 6.221085 -6.259674 -3.945871 1.144770 -6.854140 -3.038538 -5.164118 -6.835348 2.923786 9.974946 -22.269342 -11.469781 -2.200383 -0.120002 -0.926754 0.000000 0.000000 0.000000 4.870680 10.929244 0.679925 -41.288262 5.071301 -1.315905 -1.240226 -65.484691 -0.017167 5.623749 -1.991963 -0.111358 -0.131524 0.251298 -0.000000 0.000000 0.000000 0.000000 0.000000 0.000000 0.000000 14.946820 -21.106268 0.236183 70.459488 -12.514706 -13.797555 4.197894 21.247493 0.012782 1.737858 5.034593 0.072416 0.118539 -0.044759 -0.000000 0.000000 0.000000 0.000000 0.000000 0.000000 0.000000 
1.072787 17.255985 -0.915101 -173.476744 83.133889 -170.448332 -12.066369 5.563719 0.119456 0.923610 12.823321 3.157258 0.041262 2.552247 35.095959 1.907202 7.811802 22.293404 2.899800 0.000000 -49.622400 9.390765 -0.882320 1.701662 5.072985 -4.452453 -15.539789 2.354174 0.562703 4.673821 -0.210840 -3.029214 6.623969 -1.431500 -0.000000 -55.294499 6.385306 -6.123989 -3.832852 1.145890 -6.728050 -3.035421 -5.243761 -6.708643 2.856059 10.135242 -21.936246 -11.463679 -2.256111 -0.125286 -0.926471 0.000000 0.000000 0.000000 4.818492 10.986962 0.667990 -42.159812 5.857891 -0.752545 -1.264609 -65.372758 -0.015737 5.537444 -1.963799 -0.107749 -0.132562 0.240256 0.000000 0.000000 0.000000 0.000000 0.000000 0.000000 0.000000 15.215727 -20.649228 0.256363 70.058084 -11.401330 -13.436505 4.160228 21.181541 0.012345 1.378884 4.905493 0.055021 0.119232 -0.046295 -0.000000 0.000000 0.000000 0.000000 0.000000 0.000000 0.000000 
1.247854 17.261887 -0.912158 -172.576624 83.215120 -169.577491 -12.173710 5.465448 -0.046763 1.194015 13.758567 1.846265 0.104180 2.620877 37.300145 2.100370 9.938950 21.665551 3.807300 -0.000000 -44.855700 9.307390 -0.955495 1.753497 5.292432 -4.101595 -14.983429 2.336218 0.558841 5.064890 -0.269083 -3.312765 6.053702 -1.468200 -0.000000 -53.105801 6.496772 -5.992621 -3.727851 1.135210 -6.602714 -3.031421 -5.328254 -6.582683 2.790954 10.294421 -21.552276 -11.447895 -2.318971 -0.131266 -0.923764 0.000000 0.000000 0.000000 4.733129 11.068936 0.663296 -43.039923 6.612972 -0.189919 -1.294982 -65.139873 -0.014256 5.440735 -1.910158 -0.102642 -0.133610 0.228087 0.000000 0.000000 0.000000 0.000000 0.000000 0.000000 0.000000 15.508000 -20.146010 0.273162 69.677565 -10.211448 -13.034105 4.120716 21.059062 0.011857 0.985873 4.774975 0.037026 0.119986 -0.047850 -0.000000 0.000000 0.000000 0.000000 0.000000 0.000000 0.000000 
1.419778 17.268166 -0.909088 -172.006225 83.275824 -169.012618 -12.248247 5.350779 -0.216890 1.310530 14.589180 0.508736 0.154290 2.695258 39.413370 2.291645 12.169448 20.633502 4.685900 0.000000 -40.449400 9.235767 -1.017931 1.827847 5.450025 -3.630485 -14.374274 2.309343 0.568432 5.338432 -0.347397 -3.693242 5.401055 -1.518000 -0.000000 -50.555400 6.554985 -5.865779 -3.630371 1.113021 -6.478345 -3.026965 -5.415881 -6.457794 2.727349 10.445268 -21.113602 -11.417998 -2.389230 -0.138019 -0.917441 0.000000 0.000000 0.000000 4.613726 11.168653 0.665912 -43.933030 7.325635 0.362231 -1.332609 -64.767795 -0.012754 5.337630 -1.835834 -0.096538 -0.134654 0.214898 0.000000 0.000000 0.000000 0.000000 0.000000 0.000000 0.000000 15.816237 -19.593171 0.285966 69.326587 -8.963611 -12.609475 4.079412 20.895806 0.011326 0.571959 4.644706 0.019030 0.120736 -0.049456 -0.000000 0.000000 0.000000 0.000000 0.000000 0.000000 0.000000 
1.588836 17.275178 -0.905992 -171.783787 83.309553 -168.777347 -12.288687 5.226064 -0.384430 1.275306 15.301526 -0.846417 0.192893 2.774215 41.407651 2.476106 14.369562 19.242365 5.440900 0.000000 -36.509500 9.181599 -1.070853 1.914531 5.546452 -3.094875 -13.717499 2.275280 0.588373 5.494709 -0.439814 -4.134425 4.711632 -1.570900 -0.000000 -47.794100 6.559002 -5.743136 -3.539374 1.079829 -6.354482 -3.022121 -5.503387 -6.333717 2.665571 10.581727 -20.629252 -11.372144 -2.465052 -0.145397 -0.907010 0.000000 0.000000 0.000000 4.462373 11.278888 0.674884 -44.848857 7.985682 0.891426 -1.378645 -64.237354 -0.011264 5.233349 -1.745856 -0.089837 -0.135672 0.200863 -0.000000 0.000000 0.000000 0.000000 0.000000 0.000000 0.000000 16.128780 -19.001336 0.294851 69.009777 -7.662853 -12.148483 4.036286 20.698269 0.010765 0.142340 4.520880 0.001433 0.121483 -0.051119 -0.000000 0.000000 0.000000 0.000000 0.000000 0.000000 0.000000 
1.755196 17.283201 -0.902926 -171.916479 83.310926 -168.885194 -12.295348 5.097164 -0.543728 1.096536 15.892257 -2.212354 0.220807 2.855231 43.259750 2.647949 16.416400 17.551126 5.995101 0.000000 -33.063200 9.149823 -1.116370 2.003251 5.582949 -2.553677 -13.020752 2.235445 0.615195 5.538480 -0.539558 -4.600705 4.031916 -1.620000 0.000001 -45.024800 6.508380 -5.623597 -3.453155 1.036089 -6.229878 -3.017114 -5.587699 -6.209405 2.604856 10.697794 -20.102697 -11.307710 -2.544610 -0.153264 -0.891771 0.000000 0.000000 0.000000 4.284970 11.390725 0.689660 -45.799468 8.586406 1.382783 -1.434229 -63.529428 -0.009828 5.135882 -1.646199 -0.082940 -0.136675 0.186204 -0.000000 0.000000 0.000000 0.000000 0.000000 0.000000 0.000000 16.431971 -18.374305 0.300321 68.735726 -6.322086 -11.656505 3.991714 20.479395 0.010186 -0.286443 4.404876 -0.015364 0.122167 -0.052859 -0.000000 0.000000 0.000000 0.000000 0.000000 0.000000 0.000000 
1.919073 17.292330 -0.899986 -172.394951 83.276753 -169.331949 -12.270382 4.968797 -0.690328 0.786654 16.367400 -3.584040 0.238178 2.934793 44.950137 2.800938 18.210214 15.627898 6.299200 -0.000001 -30.083000 9.143662 -1.157173 2.084559 5.561569 -2.062820 -12.294248 2.191098 0.645470 5.479058 -0.639606 -5.059729 3.403412 -1.661400 0.000000 -42.467200 6.403081 -5.505657 -3.369477 0.982520 -6.102832 -3.011831 -5.664937 -6.083373 2.545502 10.789148 -19.547726 -11.224829 -2.624658 -0.161320 -0.871769 0.000000 0.000000 0.000000 4.088432 11.494988 0.709128 -46.798947 9.124673 1.818188 -1.500249 -62.627760 -0.008472 5.053235 -1.542515 -0.076247 -0.137653 0.171174 -0.000000 0.000000 0.000000 0.000000 0.000000 0.000000 0.000000 16.710423 -17.726779 0.303333 68.509162 -4.942335 -11.112469 3.946084 20.246645 0.009609 -0.703300 4.300784 -0.030862 0.122779 -0.054684 -0.000000 0.000000 0.000000 0.000000 0.000000 0.000000 0.000000 
2.080650 17.302529 -0.897340 -173.191020 83.205786 -170.093227 -12.217686 4.844065 -0.821193 0.362164 16.741115 -4.957441 0.244489 3.008861 46.462466 2.929280 19.682345 13.546355 6.337500 -0.000000 -27.515700 9.163978 -1.196323 2.151004 5.485773 -1.668382 -11.548073 2.143503 0.676273 5.327822 -0.733443 -5.484886 2.859123 -1.694299 -0.000000 -40.315800 6.244031 -5.387325 -3.286314 0.919969 -5.971225 -3.006112 -5.731549 -5.953666 2.488063 10.852370 -18.976795 -11.124699 -2.701882 -0.169252 -0.847340 0.000000 0.000000 0.000000 3.880102 11.586674 0.732541 -47.858990 9.594773 2.180153 -1.577493 -61.516812 -0.007227 4.995185 -1.440730 -0.070160 -0.138630 0.156045 0.000000 0.000000 0.000000 0.000000 0.000000 0.000000 0.000000 16.948993 -17.071257 0.304640 68.335072 -3.525243 -10.501482 3.900054 20.011156 0.009051 -1.091964 4.210092 -0.044760 0.123286 -0.056607 -0.000000 0.000000 0.000000 0.000000 0.000000 0.000000 0.000000 
2.240152 17.313593 -0.895098 -174.257819 83.099495 -171.125193 -12.142489 4.724343 -0.934825 -0.157847 17.033212 -6.328609 0.238729 3.073459 47.783035 3.028392 20.796729 11.382435 6.127500 -0.000000 -25.312199 9.209100 -1.236614 2.197417 5.360740 -1.403182 -10.791317 2.094070 0.705451 5.098569 -0.815835 -5.855873 2.417244 -1.719500 0.000000 -38.701201 6.033507 -5.266209 -3.201772 0.849403 -5.832653 -2.999992 -5.784692 -5.817979 2.432223 10.884795 -18.398665 -11.008408 -2.773348 -0.176790 -0.818774 0.000000 0.000000 0.000000 3.667201 11.660139 0.759641 -48.988598 9.996573 2.449741 -1.666441 -60.186621 -0.006104 4.969426 -1.346002 -0.064878 -0.139611 0.141063 0.000000 0.000000 0.000000 0.000000 0.000000 0.000000 0.000000 17.133221 -16.415293 0.305045 68.217449 -2.078290 -9.815947 3.854410 19.788983 0.008530 -1.433488 4.133971 -0.056459 0.123638 -0.058653 -0.000000 0.000000 0.000000 0.000000 0.000000 0.000000 0.000000 
